<svg class="logo" width="50px" height="50px" xmlns="http://www.w3.org/2000/svg">
  <g fill="none" fill-rule="evenodd">
    <path d="M48.93 36.192c-.239 0-.415-.056-.525-.166-.11-.11-.166-.285-.166-.525V17.727c0-.258.055-.437.166-.539.11-.1.286-.152.525-.152h2.765c.257 0 .437.051.54.152.1.102.15.281.15.54v7.518l6.58-7.685c.183-.202.35-.34.496-.415.148-.073.37-.11.664-.11h2.847c.387 0 .581.138.581.415 0 .184-.13.414-.388.69L56.2 25.937l7.684 9.15c.148.183.25.317.305.4.054.083.082.18.082.29 0 .276-.194.415-.58.415H60.54c-.295 0-.515-.037-.663-.11-.147-.075-.313-.212-.498-.415l-6.993-8.57v8.404c0 .24-.05.415-.15.525-.103.11-.283.166-.54.166H48.93zm21.035-2.266c.46 0 .935-.102 1.424-.305a5.374 5.374 0 001.368-.83v-2.403a14.05 14.05 0 00-2.184-.193c-1.603 0-2.405.644-2.405 1.934 0 .57.156 1.014.47 1.327.313.314.756.47 1.327.47m-1.134 2.709c-1.363 0-2.455-.388-3.275-1.161-.82-.775-1.23-1.806-1.23-3.096 0-.903.235-1.7.704-2.391.471-.691 1.121-1.216 1.95-1.576.83-.36 1.778-.54 2.846-.54.885 0 1.862.12 2.931.36V26.85c0-.848-.176-1.43-.525-1.742-.35-.313-.996-.47-1.935-.47-1.254 0-2.664.222-4.229.663a.94.94 0 01-.166.042.8.8 0 01-.139.014c-.314 0-.47-.212-.47-.636v-1.244c0-.294.037-.497.111-.608.074-.111.24-.221.498-.332.644-.276 1.423-.493 2.335-.65a16.456 16.456 0 012.778-.234c1.898 0 3.285.382 4.16 1.147s1.313 1.967 1.313 3.607V35.5c0 .24-.05.415-.152.526-.1.11-.28.166-.539.166h-1.879c-.222 0-.392-.046-.512-.14-.12-.091-.207-.248-.262-.47l-.166-.635a6.686 6.686 0 01-1.977 1.23c-.746.305-1.47.457-2.17.457m15.795-.221c-1.566 0-2.723-.368-3.469-1.105-.746-.738-1.119-1.88-1.119-3.428v-6.827h-1.437c-.24 0-.415-.056-.526-.166-.11-.111-.166-.286-.166-.526v-1.133c0-.24.051-.415.153-.525.1-.11.271-.193.51-.25l1.576-.331.498-3.15c.037-.258.115-.443.235-.554.12-.11.3-.165.54-.165h1.961c.26 0 .438.05.54.15.1.103.151.282.151.54v3.124h3.124c.258 0 .438.05.54.152.1.1.151.28.151.539v1.603c0 .24-.05.415-.152.526-.1.11-.28.166-.539.166h-3.124v6.633c0 .59.148 1.005.443 1.245.295.239.792.359 1.492.359.295 0 .581-.023.857-.07a4.23 4.23 0 01.636-.07c.313 0 .47.204.47.61v1.354c0 .314-.046.534-.138.663-.093.129-.249.222-.47.277-.81.239-1.723.359-2.737.359m10.164-2.487c.46 0 .936-.102 1.425-.305a5.374 5.374 0 001.368-.83v-2.403a14.05 14.05 0 00-2.184-.193c-1.603 0-2.405.644-2.405 1.934 0 .57.156 1.014.47 1.327.313.314.756.47 1.327.47m-1.134 2.709c-1.363 0-2.455-.388-3.275-1.161-.82-.775-1.23-1.806-1.23-3.096 0-.903.235-1.7.704-2.391.47-.691 1.12-1.216 1.95-1.576.829-.36 1.778-.54 2.846-.54.885 0 1.862.12 2.93.36V26.85c0-.848-.175-1.43-.524-1.742-.351-.313-.996-.47-1.935-.47-1.254 0-2.664.222-4.23.663a.94.94 0 01-.165.042.8.8 0 01-.14.014c-.313 0-.47-.212-.47-.636v-1.244c0-.294.038-.497.112-.608.074-.111.24-.221.498-.332.644-.276 1.423-.493 2.335-.65a16.456 16.456 0 012.778-.234c1.898 0 3.285.382 4.16 1.147s1.313 1.967 1.313 3.607V35.5c0 .24-.05.415-.152.526-.101.11-.281.166-.54.166h-1.878c-.222 0-.392-.046-.512-.14-.12-.091-.207-.248-.262-.47l-.166-.635a6.686 6.686 0 01-1.977 1.23c-.746.305-1.47.457-2.17.457m14.236-.249c-2.488 0-3.732-1.392-3.732-4.174V16.428c0-.259.055-.439.166-.539.11-.102.286-.152.525-.152h2.653c.258 0 .438.05.54.152.101.1.152.28.152.54v15.45c0 .941.341 1.41 1.022 1.41.166 0 .305-.009.415-.028.111-.018.202-.027.277-.027.166 0 .285.046.36.138.072.092.11.248.11.47v1.355c0 .294-.038.501-.11.622-.075.12-.24.225-.499.317-.516.166-1.143.25-1.879.25" fill="#FFF"></path>
    <path d="M29.756 41.27a2.87 2.87 0 01-1.25-5.454c.111-.055 4.473-2.252 5.745-6.144.678-2.076.372-4.294-.937-6.782-3.279-6.232-2.295-10.99-.892-13.885 2.395-4.943 7.314-7.49 10.035-7.996a2.873 2.873 0 013.347 2.296c.29 1.558-.804 2.744-2.297 3.346-1.289.52-4.506 1.94-5.92 4.857-1.2 2.479-.93 5.409.806 8.709 2.052 3.899 2.488 7.698 1.296 11.29-2.073 6.253-8.428 9.353-8.697 9.482a2.858 2.858 0 01-1.236.282" fill="#28A5B8"></path>
    <path d="M28.3 40.516c2.205 0 2.263 1.567 1.45 3.309-1.625 3.483-4.296 5.747-7.024 4.76-1.51-.522-.58-3.018.58-5.108a5.625 5.625 0 014.993-2.961M14.3 43.476c1.161 2.09 2.09 4.587.581 5.11-2.729.986-5.399-1.278-7.025-4.761-.813-1.742-.755-3.31 1.451-3.31a5.625 5.625 0 014.993 2.962m9.986-31.855s1.103-2.554 9.81-4.877c0 0-4.527 4.006-4.875 10.044-.407 6.037-4.935-5.167-4.935-5.167" fill="#28A5B8"></path>
    <path d="M33.98 6.745s3.025 16.14-1.967 21.712C27.02 34.03 28 16.73 28 16.73s.058-3.135 5.98-9.985" fill="#AADFE7"></path>
    <path d="M13.663 11.622S12.56 9.068 3.852 6.745c0 0 4.528 4.006 4.876 10.044.407 6.037 4.935-5.167 4.935-5.167" fill="#28A5B8"></path>
    <path d="M3.968 6.745S.944 22.885 5.936 28.457C10.929 34.03 9.948 16.73 9.948 16.73s-.058-3.135-5.98-9.985" fill="#AADFE7"></path>
    <path d="M37.812 31.111c0 9.405-8.998 13.643-18.403 13.643S.02 42.083.02 32.678c0-9.404 9.405-22.467 18.81-22.467 9.404 0 18.983 11.495 18.983 20.9" fill="#28A5B8"></path>
    <path d="M36.477 36.858s-4.47-.755-4.993-.464c-.522.29 3.02 3.135 3.02 3.135s1.218-1.162 1.973-2.67m1.277-6.387s-7.315 1.974-7.837 2.73c-.523.753 7.082 2.437 7.082 2.437s.987-2.38.755-5.167M.774 36.8s4.063-.639 4.528-.348c.464.29-2.845 3.135-2.845 3.135S1.238 38.135.774 36.8m-.639-6.154s6.328 1.8 6.792 2.613c.465.812-6.56 2.438-6.56 2.438s-.638-2.438-.232-5.05m16.035 2.94c-.455 0-.894-.1-1.286-.344a.87.87 0 11.923-1.477c.566.356 2.25-.471 3.197-1.178a.897.897 0 01.543-.173.899.899 0 01.56.174c.781.583 2.491 1.46 3.1.956a.87.87 0 011.113 1.338c-1.493 1.245-3.745.085-4.76-.56-.756.497-2.127 1.264-3.39 1.264" fill="#232F3E"></path>
    <path d="M10.227 28.845c1.602.464 2.748 1.364 2.561 2.01-.187.647-1.637.796-3.239.332-1.6-.463-2.748-1.363-2.56-2.01.186-.647 1.636-.796 3.238-.332m17.748-.059c1.663-.113 3.049.34 3.094 1.012.046.672-1.266 1.308-2.93 1.42-1.663.113-3.048-.34-3.094-1.012-.045-.672 1.267-1.307 2.93-1.42" fill="#AADFE7"></path>
    <path d="M15.345 25.77c0 .987-.813 1.8-1.8 1.8a1.808 1.808 0 01-1.799-1.8c0-.987.812-2.264 1.8-2.264.986 0 1.8 1.277 1.8 2.264m11.726.058c0 .93-.755 1.684-1.684 1.684a1.685 1.685 0 01-1.683-1.684c0-.929.755-2.09 1.683-2.09.93 0 1.684 1.161 1.684 2.09" fill="#232F3E"></path>
  </g>
</svg>