<svg xmlns="http://www.w3.org/2000/svg" class="css-zektzg" id="Layer_1" data-name="Layer 1" viewBox="0 0 219 32">
  <title>Artboard 1</title>
  <path d="M30.24,6.23l-.18,21.85,1,1,0,0,.24-.26c.27-.31.54-.62.78-.95v1.59h0l-.31.35c-.23.25-.47.49-.7.73l-1-1-5-5-2.73-2.73-.66-.66L21.52,21l-.48.94L17.38,29l-.48.92-.54,1V15.79l.69-.68h0l0,0,.28-.28L30,2.32h0L30.28,2h0l.3-.3.09-.09L31.3,1l.69.74.31.36v1.6l-.45-.58-.54,1,0,0Z" style="fill:#3fc1ee"></path>
  <path d="M31.3,1V4.18l0,0-1,2-.18,21.85,1,1,0,0,.24-.26v1.47l-.25.26-.59.56-.15.14-.72-.72-7.81-7.81-4.41,8.57h0l-.11.22a1,1,0,0,1-.9.55V31l.54-1,.48-.92L21,21.91l.48-.94.44-.91,8-16.29.32-.66L30.83,2,31,1.59Z" style="fill:#ff574a"></path>
  <path d="M31.3,28.77c.27-.31.54-.62.78-.95v1.59h0l-.32.35-.45.48Z" style="fill:#d3ccb7"></path>
  <path d="M32.3,2.11v1.6l-.45-.58-.54,1V1l.69.74Z" style="fill:#d3ccb7"></path>
  <polygon points="31.3 1.01 31.3 1.01 31.3 1.01 31.3 1.01" style="fill:#ff574a"></polygon>
  <path d="M1.41,1l0,0v.06l0,0Z" style="fill:#ff574a"></path>
  <polygon points="16.37 15.81 16.37 15.78 16.36 15.8 16.37 15.81" style="fill:#ff574a"></polygon>
  <polygon points="16.37 15.75 16.34 15.78 16.36 15.8 16.36 15.8 16.37 15.78 16.37 15.78 16.37 15.75" style="fill:#ff574a"></polygon>
  <path d="M31.3,1.45v1l0,1.74-1,2-.18,21.85,1,1,0,0v1l-.5-.47-.5-.46-5-4.66-2.8-2.59-.68-.63.09-.18.46-.93h0L30.27,3.54l.08-.16h0L31,2.13l.25-.51Z" style="fill:#11f2ad"></path>
  <path d="M.91,1.45v1l0,1.74,1,2,.18,21.85-1,1,0,0v1l.5-.47.5-.46,5-4.66L10,21.86l.68-.63-.09-.18-.46-.93h0L1.94,3.54l-.08-.16h0L1.24,2.13,1,1.62Z" style="fill:#11f2ad"></path>
  <path d="M16.18,15.79V31l-.48-.92-.35-.68L11.56,22,11,21l-.67.67L7.55,24.45,2.63,29.37,1.5,30.5l-.25-.26h0l-.39-.4-.25-.28,0-1.81-.21-24V2h0l.25-.29L1.25,1h0l.59.59.22.22.33.33.43.42L15.36,15l.16.16,0,0,0,0,0,0Z" style="fill:#ffd12c"></path>
  <polygon points="1.25 1.45 11.03 21.23 1.5 30.03 1.25 1.45" style="fill:#ff574a"></polygon>
  <polygon points="1.25 1.01 1.25 1.01 1.25 1.01 1.25 1.01" style="fill:#ff574a"></polygon>
  <path d="M31.14,1l0,0v.06l0,0Z" style="fill:#ff574a"></path>
  <polygon points="16.18 15.81 16.18 15.78 16.2 15.8 16.18 15.81" style="fill:#ff574a"></polygon>
  <polygon points="16.18 15.75 16.21 15.78 16.2 15.8 16.2 15.8 16.18 15.78 16.18 15.78 16.18 15.75" style="fill:#ff574a"></polygon>
  <path d="M32.3.91s0,0,0,0a.76.76,0,0,0,0-.14.36.36,0,0,0,0-.08A1,1,0,0,0,32,.3h0A1,1,0,0,0,31.41,0h-.3L31,0l-.08,0a1,1,0,0,0-.34.22L29.86,1,17.38,13.36l-1,1-1-1L2.85,1,2.09.29A1,1,0,0,0,1.67,0l-.1,0h-.3A1,1,0,0,0,.91.12h0A1,1,0,0,0,.48.56h0l0,.07A.92.92,0,0,0,.37.91h0A.14.14,0,0,0,.37,1,.32.32,0,0,0,.37,1V2h0V3.79l.21,24,0,1.81v.68s0,.08,0,.11h0A1,1,0,0,0,.73,31h0a1.08,1.08,0,0,0,.18.24,1,1,0,0,0,.24.18h0a1,1,0,0,0,.47.11,1,1,0,0,0,.68-.26l0,0,.76-.77,7.79-7.79,4.47,8.69.05.1a1,1,0,0,0,.77.54h.19a1,1,0,0,0,.9-.55l.11-.22h0l4.41-8.57,7.81,7.81.72.72,0,0a1,1,0,0,0,1.36.07l.08-.07.07-.08a1,1,0,0,0,.22-.77.81.81,0,0,0,0-.12v-.82h0V27.82h0l.21-24.11V1A1,1,0,0,0,32.3.91ZM28.5,5.21,20.66,20.44l0,.06h0l0,.08-3.21,6.22V16.2ZM2.62,28.08,2.43,6.22,9.92,20.77ZM12,20.5,4.18,5.21,15.36,16.27V26.94Zm10.71.28L30.24,6.23l-.18,21.85h0Z" style="fill:#252829"></path>
  <path d="M64.13,5.26l-4,10-4.33-10H50.22V26.75h5.09V14.59L59,22.9h2.17l3.63-8.53V26.75H70V5.26Z" class="text step-0" style="fill:#252829"></path>
  <path d="M92.55,9.88V5.26h-14V26.75h14V22.1H84V18.22H91.4V13.64H84V9.88Z" class="text step-1" style="fill:#252829"></path>
  <path d="M114,19.94h.16a2.46,2.46,0,0,0,2.42-2.42V7.68a2.42,2.42,0,0,0-2.42-2.42h-13.5V26.75h5.54V19.94h2.35l2.67,6.81h5.41Zm-2.93-4.61a.34.34,0,0,1-.29.29H106.2V9.88h4.58a.34.34,0,0,1,.29.32Z" class="text step-2" style="fill:#252829"></path>
  <path d="M150.41,5.26H138.86V26.75h11.55a4.39,4.39,0,0,0,4.36-4.39V9.63A4.39,4.39,0,0,0,150.41,5.26Zm-1.15,15.28a1.48,1.48,0,0,1-1.56,1.56h-3.31V9.88h3.31a1.48,1.48,0,0,1,1.56,1.56Z" class="text step-4" style="fill:#252829"></path>
  <path d="M190.46,5.26H179.54A2.39,2.39,0,0,0,177,7.78v19h5.54V21.4h4.87v5.35H193v-19A2.39,2.39,0,0,0,190.46,5.26Zm-3,11.49h-4.87V10.29a.65.65,0,0,1,.67-.64h3.44a.68.68,0,0,1,.76.64Z" class="text step-6" style="fill:#252829"></path>
  <path d="M212.91,5.26V17.1L206.48,5.26h-5.09V26.75h5.09V14.94l6.27,11.81H218V5.26Z" class="text step-7" style="fill:#252829"></path>
  <path d="M125.2,26.75V5.25h2.94a2.39,2.39,0,0,1,2.58,2.43V26.75Z" class="text step-3" style="fill:#252829"></path>
  <path d="M163.24,26.75V5.25h2.94a2.39,2.39,0,0,1,2.58,2.43V26.75Z" class="text step-5" style="fill:#252829"></path>
</svg>