<?xml version="1.0" encoding="utf-8"?>
<!-- Generator: Adobe Illustrator 23.0.4, SVG Export Plug-In . SVG Version: 6.00 Build 0)  -->
<svg version="1.1" id="Layer_1" xmlns="http://www.w3.org/2000/svg" xmlns:xlink="http://www.w3.org/1999/xlink" x="0px" y="0px"
  viewBox="0 0 678.6 109.3" style="enable-background:new 0 0 678.6 109.3;" xml:space="preserve">
  <style type="text/css">
	.st0{fill:#FFFFFF;}
	.st1{fill-rule:evenodd;clip-rule:evenodd;fill:#F89628;}
</style>
  <title>AWS_designsystem</title>
  <path class="st0" d="M42.3,51.9c0,1.5,0.1,3,0.6,4.4c0.4,1.2,1,2.4,1.7,3.6c0.2,0.3,0.3,0.7,0.3,1.1c-0.1,0.6-0.4,1.2-1,1.5
	l-3.2,2.1c-0.4,0.3-0.8,0.4-1.3,0.4c-0.6,0-1.1-0.3-1.5-0.7c-0.7-0.7-1.3-1.5-1.8-2.3c-0.5-0.8-1-1.8-1.5-2.9c-3.6,4.4-9,7-14.7,6.9
	c-4.2,0-7.5-1.2-10-3.6c-2.5-2.6-3.8-6.1-3.6-9.6c-0.1-3.9,1.5-7.7,4.5-10.3c3-2.6,7.1-3.9,12.2-3.9c1.8,0,3.5,0.1,5.3,0.4
	c1.8,0.3,3.7,0.6,5.7,1.1v-3.6c0-3.8-0.8-6.5-2.3-8c-1.6-1.5-4.3-2.3-8.1-2.3c-1.8,0-3.6,0.2-5.4,0.7c-1.8,0.4-3.6,1-5.4,1.7
	c-0.6,0.3-1.1,0.5-1.7,0.7c-0.3,0.1-0.5,0.1-0.8,0.1c-0.7,0-1-0.5-1-1.6v-2.4c0-0.6,0.1-1.2,0.3-1.7c0.4-0.5,0.9-0.8,1.4-1
	c2-1,4.1-1.7,6.3-2.3c2.5-0.7,5.1-1,7.8-1c5.9,0,10.3,1.4,13,4.1c2.8,2.7,4.1,6.8,4.2,12.3L42.3,51.9z M22,59.5
	c1.8,0,3.5-0.3,5.1-0.9c1.8-0.6,3.4-1.7,4.7-3.2c0.8-0.9,1.4-2,1.7-3.2c0.3-1.4,0.5-2.9,0.5-4.4v-2c-1.5-0.4-3-0.7-4.6-0.9
	c-1.5-0.2-3.1-0.3-4.7-0.3c-3.3,0-5.8,0.7-7.4,2c-1.7,1.4-2.6,3.6-2.4,5.8c-0.1,1.9,0.5,3.8,1.8,5.3C18.2,59,20.1,59.6,22,59.5z
	 M62.1,64.9c-0.7,0.1-1.3-0.1-1.9-0.5c-0.5-0.6-0.9-1.2-1-2L47.4,23.8c-0.2-0.6-0.4-1.3-0.4-2c-0.1-0.6,0.3-1.1,0.9-1.2
	c0.1,0,0.2,0,0.3,0h4.9c0.7-0.1,1.4,0.1,2,0.5c0.5,0.6,0.9,1.3,1,2l8.4,33l7.8-33c0.1-0.8,0.5-1.5,1-2c0.6-0.4,1.3-0.5,2-0.5h4
	c0.7-0.1,1.4,0.1,2,0.5c0.5,0.5,0.9,1.2,1,2l7.9,33.4l8.6-33.4c0.1-0.7,0.5-1.4,1-2c0.6-0.4,1.3-0.6,2-0.5h4.6c0.6,0,1.1,0.4,1.1,1
	c0,0.1,0,0.1,0,0.2c0,0.3,0,0.5-0.1,0.8c-0.1,0.4-0.2,0.8-0.4,1.2l-12,38.6c-0.1,0.8-0.5,1.5-1.1,2c-0.6,0.4-1.2,0.5-1.9,0.5h-4.3
	c-0.7,0.1-1.4-0.1-2-0.5c-0.5-0.5-0.9-1.2-1-2L77,30.3l-7.7,32.1c-0.1,0.7-0.5,1.4-1,2c-0.6,0.4-1.3,0.6-2,0.5L62.1,64.9z
	 M126.1,66.2c-2.6,0-5.1-0.3-7.6-0.9c-2-0.4-3.9-1.1-5.8-2c-0.6-0.3-1.2-0.8-1.5-1.4c-0.2-0.4-0.3-0.9-0.3-1.4V58
	c0-1,0.4-1.6,1.1-1.6c0.3,0,0.6,0.1,0.9,0.2c0.3,0.1,0.7,0.3,1.3,0.5c1.8,0.8,3.6,1.4,5.5,1.7c2,0.4,3.9,0.6,5.9,0.6
	c3.1,0,5.6-0.6,7.3-1.7c1.6-1,2.6-2.8,2.6-4.7c0-1.3-0.4-2.6-1.4-3.5c-1.5-1.2-3.2-2.1-5-2.6l-7.2-2.3c-3.7-1.2-6.3-2.8-8-5.1
	c-1.6-2.1-2.5-4.6-2.5-7.2c0-1.9,0.4-3.8,1.4-5.5c0.9-1.6,2.1-3,3.6-4.1c1.5-1.2,3.3-2,5.2-2.6c2-0.6,4.2-0.9,6.3-0.9
	c1.1,0,2.2,0.1,3.4,0.2c1.1,0.1,2.2,0.3,3.2,0.6c1,0.2,2,0.5,2.8,0.8c0.7,0.2,1.4,0.5,2.1,0.9c0.6,0.3,1.1,0.7,1.5,1.2
	c0.3,0.5,0.5,1.1,0.4,1.7V27c0,1-0.4,1.6-1.1,1.6c-0.7-0.1-1.3-0.3-1.9-0.6c-3-1.3-6.3-2-9.6-1.9c-2.3-0.1-4.6,0.4-6.6,1.4
	c-1.6,0.9-2.5,2.6-2.4,4.5c0,1.3,0.5,2.6,1.5,3.5c1.6,1.3,3.5,2.2,5.5,2.8l7.1,2.3c3.6,1.2,6.2,2.8,7.7,4.8c1.5,2,2.3,4.5,2.3,7
	c0,2-0.4,4-1.3,5.8c-0.9,1.7-2.1,3.2-3.6,4.4c-1.7,1.3-3.5,2.2-5.5,2.8C130.9,65.9,128.5,66.2,126.1,66.2z" />
  <path class="st1" d="M135.6,90.8c-16.4,12.1-40.2,18.6-60.7,18.6C47.5,109.5,21,99.4,0.7,81c-1.5-1.4-0.2-3.3,1.7-2.2
	C25,91.8,50.5,98.5,76.6,98.5c19.5-0.1,38.7-4,56.6-11.6C136,85.8,138.3,88.8,135.6,90.8z" />
  <path class="st1" d="M142.4,83c-2.1-2.7-13.9-1.3-19.2-0.6c-1.6,0.2-1.9-1.2-0.4-2.2c9.4-6.6,24.8-4.7,26.6-2.5s-0.5,17.7-9.3,25.1
	c-1.4,1.1-2.6,0.5-2-1C140.1,96.7,144.5,85.7,142.4,83z" />
  <path class="st0" d="M196.7,63.1c-5.6,0-9.9-1.9-13.1-5.8c-3.2-3.9-4.8-9.2-4.8-16c0-6.9,1.6-12.5,4.9-16.5s7.7-6.1,13.3-6.1
	c5.2,0,10.3,2,14.1,5.5V1.3c-0.1-0.6,0.3-1.2,0.9-1.3c0.1,0,0.2,0,0.3,0h2.3c0.6-0.1,1.2,0.3,1.3,0.9c0,0.1,0,0.2,0,0.3v59.6
	c0.1,0.6-0.3,1.2-0.9,1.3c-0.1,0-0.2,0-0.3,0h-1.8c-0.7,0.1-1.4-0.4-1.4-1.2c0,0,0-0.1,0-0.1l-0.3-3.4c-2.1,1.7-4.4,3.1-6.9,4.1
	C201.8,62.5,199.3,63.1,196.7,63.1z M197.8,58.7c4.2,0,8.6-1.8,13.2-5.4V28.5c-2-1.7-4.3-3.1-6.8-4.2c-2.2-0.9-4.5-1.3-6.9-1.3
	c-4.5,0-7.9,1.5-10.2,4.5c-2.3,3-3.5,7.5-3.5,13.4C183.7,52.8,188.4,58.7,197.8,58.7z" />
  <path class="st0" d="M246,63.4c-6.7,0-11.7-1.9-15-5.7c-3.3-3.8-5-9.4-5-16.8c0-7.1,1.7-12.5,5.1-16.4s8.1-5.8,14.2-5.8
	c5.1,0,9,1.5,11.7,4.4s4.1,7.1,4.1,12.5c0,1.7-0.1,3.3-0.3,5c0,0.8-0.7,1.3-1.4,1.3c0,0-0.1,0-0.1,0h-28.5c0.1,5.9,1.3,10.2,3.9,13
	S241,59,246.3,59c3.9,0,7.8-0.7,11.5-2.1c0.5-0.2,1-0.4,1.5-0.4c0.2,0,0.4,0.1,0.6,0.3c0.2,0.2,0.3,0.5,0.2,0.7v1.3
	c0.1,0.7-0.3,1.4-0.9,1.8C255.1,62.5,250.5,63.5,246,63.4z M256.3,38c0.1-0.8,0.1-1.7,0.1-2.8c0-4-1-7.1-2.9-9.2
	c-2-2.1-4.9-3.1-8.6-3.1c-8.9,0-13.5,5-14,15L256.3,38z" />
  <path class="st0" d="M281.4,63.4c-2.2,0-4.5-0.2-6.7-0.7c-2.1-0.4-4.1-1-6-1.8c-0.7-0.3-1.1-1-1-1.7v-1.4c0-0.7,0.3-1,0.9-1
	c0.3,0,0.5,0.1,0.8,0.2c0.4,0.1,1.2,0.4,2.4,0.8c3.2,1,6.6,1.4,9.9,1.4c3.4,0,6-0.7,7.8-2.1c1.8-1.4,2.8-3.7,2.7-6
	c0-1.5-0.6-2.9-1.6-3.9c-1.6-1.4-3.5-2.4-5.5-3l-7.6-2.9c-6-2.2-9-5.9-9-11c-0.1-3.3,1.3-6.4,3.9-8.5c2.6-2.2,6-3.2,10.2-3.2
	c3.8,0,7.5,0.7,11,2.1c0.7,0.3,1.1,1,1,1.7v1.3c0,0.7-0.3,1.1-0.9,1.1c-0.7-0.1-1.4-0.2-2.1-0.4c-3-0.9-6.1-1.4-9.2-1.4
	c-3,0-5.3,0.6-6.9,1.8c-1.6,1.3-2.5,3.3-2.4,5.3c-0.1,1.6,0.5,3.2,1.6,4.4c1.1,1,3.2,2.2,6.4,3.4l6.7,2.5c2.6,0.8,5,2.3,6.8,4.3
	c1.5,1.8,2.2,4,2.1,6.3c0.1,3.5-1.4,6.8-4.2,9C289.9,62.3,286.2,63.4,281.4,63.4z" />
  <path class="st0" d="M308,10.8c-1,0.1-1.9-0.3-2.6-1c-1.3-1.6-1.3-3.8,0-5.4c1.5-1.3,3.8-1.3,5.3,0c0.7,0.7,1,1.7,1,2.7
	c0,1-0.3,2-1,2.7C310,10.5,309,10.9,308,10.8z M306.9,62.2c-0.6,0.1-1.2-0.3-1.3-0.9c0-0.1,0-0.2,0-0.3V21.2
	c-0.1-0.6,0.3-1.2,0.9-1.3c0.1,0,0.2,0,0.3,0h2.3c0.6-0.1,1.2,0.3,1.3,0.9c0,0.1,0,0.2,0,0.3v39.7c0.1,0.6-0.3,1.2-0.9,1.3
	c-0.1,0-0.2,0-0.3,0H306.9z" />
  <path class="st0" d="M337.9,80.5c-2.3,0-4.6-0.2-6.9-0.7c-2-0.4-4-1.1-5.9-2c-0.7-0.3-1-1-0.9-1.8v-1.2c0-0.7,0.3-1.1,0.9-1.1
	c0.2,0,0.4,0,0.5,0.1c0.2,0,0.5,0.2,1,0.3c3.5,1.2,7.2,1.9,10.9,1.9c5.2,0,9-1.3,11.5-3.9s3.7-6.6,3.6-12.2v-4.1
	c-2.1,1.7-4.4,3.1-6.9,4.1c-2.3,1-4.7,1.5-7.2,1.5c-5,0.2-9.7-1.9-12.9-5.7c-3.2-3.8-4.9-8.9-4.9-15.2c0-6.8,1.6-12.1,4.8-16
	c3.2-3.9,7.6-5.9,13.1-5.9c5.2,0,10.2,2,14,5.6l0.3-3.1c0-0.7,0.6-1.3,1.3-1.3c0,0,0.1,0,0.1,0h1.7c0.6-0.1,1.2,0.3,1.3,0.9
	c0,0.1,0,0.2,0,0.3v39.1c0,6.6-1.7,11.6-5,15.1S344.3,80.5,337.9,80.5z M339.7,57.2c4.2,0,8.5-1.8,13-5.4V28.5
	c-2-1.7-4.2-3.1-6.6-4.2c-2.2-0.9-4.5-1.3-6.8-1.3c-4.5,0-7.9,1.5-10.1,4.4c-2.3,2.9-3.4,7.2-3.4,12.9c0,5.5,1.2,9.7,3.6,12.6
	C331.7,55.8,335.2,57.2,339.7,57.2L339.7,57.2z" />
  <path class="st0" d="M371,62.2c-0.6,0.1-1.2-0.3-1.3-0.9c0-0.1,0-0.2,0-0.3V21.2c-0.1-0.6,0.3-1.2,0.9-1.3c0.1,0,0.2,0,0.3,0h1.7
	c0.7-0.1,1.3,0.4,1.4,1c0,0.1,0,0.1,0,0.2l0.3,3.6c2.7-1.9,5.6-3.4,8.6-4.5c2.8-1,5.8-1.6,8.8-1.6c4.1,0,7.2,1.1,9.4,3.2
	c2.2,2.2,3.2,5.3,3.2,9.5v29.5c0.1,0.6-0.3,1.2-0.9,1.3c-0.1,0-0.2,0-0.3,0H401c-0.6,0.1-1.2-0.3-1.3-0.9c0-0.1,0-0.2,0-0.3V33.4
	c0-3.6-0.7-6.3-2.1-7.9S394,23,390.9,23c-5.9,0.1-11.6,2-16.4,5.4v32.5c0.1,0.6-0.3,1.2-0.9,1.3c-0.1,0-0.2,0-0.3,0H371z" />
  <path class="st0" d="M448.5,63.4c-2.2,0-4.5-0.2-6.7-0.7c-2.1-0.4-4.1-1-6-1.8c-0.7-0.3-1.1-1-1-1.7v-1.4c0-0.7,0.3-1,0.9-1
	c0.3,0,0.5,0.1,0.8,0.2c0.4,0.1,1.2,0.4,2.4,0.8c3.2,1,6.6,1.4,9.9,1.4c3.4,0,6-0.7,7.8-2.1c1.8-1.4,2.8-3.7,2.7-6
	c0-1.5-0.6-2.9-1.6-3.9c-1.6-1.4-3.5-2.4-5.5-3l-7.7-2.9c-6-2.2-9-5.9-9-11c-0.1-3.3,1.4-6.5,4-8.5c2.6-2.2,6-3.2,10.2-3.2
	c3.8,0,7.5,0.7,11,2.1c0.7,0.3,1.1,1,1,1.7v1.3c0,0.7-0.3,1.1-0.9,1.1c-0.7-0.1-1.4-0.2-2.1-0.4c-3-0.9-6.1-1.4-9.2-1.4
	c-3,0-5.3,0.6-6.9,1.8c-1.6,1.3-2.5,3.3-2.4,5.3c-0.1,1.6,0.5,3.2,1.6,4.4c1.1,1,3.2,2.2,6.4,3.4l6.7,2.5c2.6,0.8,5,2.3,6.9,4.3
	c1.5,1.8,2.2,4,2.1,6.3c0.1,3.5-1.4,6.8-4.2,9C457,62.3,453.3,63.4,448.5,63.4z" />
  <path class="st0" d="M473.8,80.5c-1.3,0-2.6-0.2-3.9-0.6c-0.8-0.2-1.3-0.9-1.3-1.7V77c0-0.7,0.3-1.1,1-1.1c0.3,0,0.6,0,0.9,0.1
	c0.4,0.1,0.7,0.1,1.1,0.1c0.5,0,1,0,1.8,0c1.6,0.1,3.2-0.4,4.4-1.4c1.4-1.5,2.5-3.2,3.2-5.1l2.9-7.1l-16.5-40.6
	c-0.2-0.3-0.3-0.7-0.3-1.1c0-0.6,0.3-0.9,1-0.9h2.7c0.7,0,1.3,0.4,1.4,1.1l14,36.1L500.4,21c0.1-0.7,0.8-1.1,1.4-1.1h2.5
	c0.7,0,1,0.3,1,0.9c-0.1,0.4-0.2,0.8-0.3,1.1l-19.8,49.1c-1.4,3.4-3,5.8-4.7,7.3C478.6,79.8,476.2,80.6,473.8,80.5z" />
  <path class="st0" d="M523,63.4c-2.2,0-4.5-0.2-6.7-0.7c-2.1-0.4-4.1-1-6-1.8c-0.7-0.3-1.1-1-1-1.7v-1.4c0-0.7,0.3-1,0.9-1
	c0.3,0,0.5,0.1,0.8,0.2c0.4,0.1,1.2,0.4,2.4,0.8c3.2,1,6.6,1.4,9.9,1.4c3.4,0,6-0.7,7.8-2.1c1.8-1.4,2.8-3.7,2.7-6
	c0-1.5-0.6-2.9-1.6-3.9c-1.6-1.4-3.5-2.4-5.5-3l-7.7-2.9c-6-2.2-9-5.9-9-11c-0.1-3.3,1.3-6.5,3.9-8.6c2.6-2.2,6-3.2,10.2-3.2
	c3.8,0,7.5,0.7,11,2.1c0.7,0.3,1.1,1,1,1.7v1.3c0,0.7-0.3,1.1-0.9,1.1c-0.7-0.1-1.4-0.2-2.1-0.4c-3-0.9-6.1-1.4-9.2-1.4
	c-3,0-5.3,0.6-6.9,1.8c-1.6,1.3-2.5,3.3-2.4,5.3c-0.1,1.6,0.5,3.2,1.6,4.4c1.1,1,3.2,2.2,6.4,3.4l6.8,2.6c2.6,0.8,5,2.3,6.8,4.3
	c1.5,1.8,2.2,4,2.2,6.3c0.1,3.5-1.4,6.8-4.2,9C531.5,62.3,527.8,63.4,523,63.4z" />
  <path class="st0" d="M559.9,62.7c-3.3,0-5.8-0.9-7.6-2.7s-2.6-4.3-2.6-7.7V24.1h-6.6c-0.6,0.1-1.2-0.3-1.3-0.9c0-0.1,0-0.2,0-0.3V22
	c0-0.4,0.1-0.7,0.3-1c0.3-0.3,0.6-0.4,1-0.4l6.8-0.6l0.6-11.1c0-0.4,0.1-0.7,0.4-1c0.2-0.2,0.6-0.3,0.9-0.3h1.5
	c0.6-0.1,1.2,0.4,1.2,1c0,0.1,0,0.2,0,0.3v11h12.2c0.6-0.1,1.2,0.3,1.3,0.9c0,0.1,0,0.2,0,0.3v1.7c0.1,0.6-0.3,1.2-0.9,1.3
	c-0.1,0-0.2,0-0.3,0h-12.2v28c0,2.3,0.5,3.9,1.5,4.9c1,1,2.6,1.4,4.9,1.4c1.4,0,2.9-0.1,4.3-0.4c0.6-0.1,1.1-0.2,1.5-0.3
	c0.3-0.1,0.5-0.1,0.8-0.1c0.6,0,0.9,0.3,0.9,1v1.3c0,1-0.3,1.5-0.9,1.8C565,62.4,562.4,62.7,559.9,62.7z" />
  <path class="st0" d="M593.5,63.4c-6.7,0-11.7-1.9-15-5.7s-5-9.4-5-16.8c0-7.1,1.7-12.5,5.1-16.4c3.4-3.9,8.1-5.8,14.2-5.8
	c5.1,0,9,1.5,11.7,4.4c2.7,2.9,4,7.1,4,12.5c0,1.7-0.1,3.3-0.3,5c0,0.7-0.6,1.3-1.4,1.3c0,0,0,0,0,0h-28.5c0.1,5.9,1.3,10.2,3.9,13
	s6.4,4.2,11.7,4.2c3.9,0,7.8-0.7,11.5-2.1c0.5-0.2,1-0.4,1.5-0.4c0.2,0,0.4,0.1,0.6,0.3c0.2,0.2,0.3,0.4,0.2,0.7v1.3
	c0.1,0.7-0.3,1.4-0.9,1.8C602.6,62.5,598.1,63.5,593.5,63.4z M603.8,38c0-0.8,0.1-1.7,0.1-2.8c0-4-1-7.1-2.9-9.2
	c-2-2.1-4.8-3.1-8.7-3.1c-8.8,0-13.5,5-14,15L603.8,38z" />
  <path class="st0" d="M619.5,62.2c-0.6,0.1-1.2-0.3-1.3-0.9c0-0.1,0-0.2,0-0.3V21.2c-0.1-0.6,0.3-1.2,0.9-1.3c0.1,0,0.2,0,0.3,0h1.7
	c0.7-0.1,1.3,0.4,1.4,1c0,0.1,0,0.1,0,0.2l0.3,3.4c2.4-1.8,5.1-3.3,7.9-4.4c2.6-1,5.3-1.5,8.1-1.5c5.3,0,8.8,2.2,10.6,6.5
	c2.5-2,5.4-3.6,8.4-4.8c2.8-1.1,5.8-1.7,8.8-1.7c3.9,0,6.8,1.1,8.8,3.3c2,2.2,3,5.4,3,9.5v29.5c0.1,0.6-0.3,1.2-0.9,1.3
	c-0.1,0-0.2,0-0.3,0h-2.3c-0.6,0.1-1.2-0.3-1.3-0.9c0-0.1,0-0.2,0-0.3V33.4c0-3.6-0.6-6.3-1.9-7.9s-3.3-2.5-6.1-2.5
	c-5.5,0.1-10.9,1.9-15.2,5.3c0.2,1.3,0.3,2.7,0.2,4v28.6c0.1,0.6-0.3,1.2-0.9,1.3c-0.1,0-0.2,0-0.3,0h-2.3c-0.6,0.1-1.2-0.3-1.3-0.9
	c0-0.1,0-0.2,0-0.3V33.4c0-3.6-0.7-6.3-1.9-7.9S640.8,23,638,23c-5.4,0.1-10.7,1.9-15,5.1v32.8c0.1,0.6-0.3,1.2-0.9,1.3
	c-0.1,0-0.2,0-0.3,0H619.5z" />
</svg>