<?xml version="1.0" encoding="utf-8"?>
<!-- Generator: Adobe Illustrator 18.0.0, SVG Export Plug-In . SVG Version: 6.00 Build 0)  -->
<!DOCTYPE svg PUBLIC "-//W3C//DTD SVG 1.1//EN" "http://www.w3.org/Graphics/SVG/1.1/DTD/svg11.dtd">
<svg version="1.1" id="Layer_1" xmlns="http://www.w3.org/2000/svg" xmlns:xlink="http://www.w3.org/1999/xlink" x="0px" y="0px"
	 width="16px" height="12px" viewBox="0 0 16 12" enable-background="new 0 0 16 12" xml:space="preserve">
<g>
	<path fill="#39B54A" d="M15.5,2.5c-0.1-0.7-0.2-1.6-1.3-2.4c-1,1.7-2,1.9-4.2,2c-1.6,0-3.2,0-4.7,0.6C4,3.3,2.8,4.3,2.2,5.7
		C1.9,6.4,1.7,7.2,1.9,8c0,0.3,0.2,0.6,0.3,0.9c0.1,0.3,0.3,0.7,0.8,1c0.5,0.5,1.5,0.9,2,1.1c1.6,0.5,3.4,0.4,4.9-0.2
		C13.4,9.6,16,6.4,15.5,2.5C15.5,2.2,15.5,2.8,15.5,2.5z"/>
	<g>
		<g>
			<path fill="#0D7A3D" d="M14.2,0.6c0.1,0,0.4,0.5,0.4,1.6c0,0.5,0,1.2-0.5,1.9c-0.5,0.7-1.3,1.2-2.2,1.5c-1.7,0.6-3.7,0.8-5.4,1.6
				C4.8,8,3.3,9.5,2.3,11.3C2.1,11.8,1.5,12,1,11.8c-0.5-0.2-0.7-0.9-0.4-1.4C1.4,8.8,2.9,7,4.9,6c2-1.1,4.2-1.3,5.9-1.5
				c0.9-0.1,1.6-0.3,2.1-0.7c0.5-0.3,0.8-0.9,0.9-1.4C14.1,1.4,14.1,0.6,14.2,0.6z"/>
		</g>
	</g>
</g>
</svg>
